<?xml version="1.0" encoding="UTF-8" standalone="no"?>
<!-- Generator: Adobe Illustrator 16.0.0, SVG Export Plug-In . SVG Version: 6.00 Build 0)  -->

<svg
   xmlns:dc="http://purl.org/dc/elements/1.1/"
   xmlns:cc="http://creativecommons.org/ns#"
   xmlns:rdf="http://www.w3.org/1999/02/22-rdf-syntax-ns#"
   xmlns:svg="http://www.w3.org/2000/svg"
   xmlns="http://www.w3.org/2000/svg"
   xmlns:sodipodi="http://sodipodi.sourceforge.net/DTD/sodipodi-0.dtd"
   xmlns:inkscape="http://www.inkscape.org/namespaces/inkscape"
   version="1.1"
   id="Capa_1"
   x="0px"
   y="0px"
   width="683.4801"
   height="667.53381"
   viewBox="0 0 683.48009 667.5338"
   xml:space="preserve"
   sodipodi:docname="github.svg"
   inkscape:version="0.92.4 (5da689c313, 2019-01-14)"><metadata
   id="metadata41"><rdf:RDF><cc:Work
       rdf:about=""><dc:format>image/svg+xml</dc:format><dc:type
         rdf:resource="http://purl.org/dc/dcmitype/StillImage" /><dc:title /></cc:Work></rdf:RDF></metadata><defs
   id="defs39">
	
</defs><sodipodi:namedview
   pagecolor="#ffffff"
   bordercolor="#666666"
   borderopacity="1"
   objecttolerance="10"
   gridtolerance="10"
   guidetolerance="10"
   inkscape:pageopacity="0"
   inkscape:pageshadow="2"
   inkscape:window-width="1920"
   inkscape:window-height="1017"
   id="namedview37"
   showgrid="false"
   inkscape:zoom="1.0762765"
   inkscape:cx="374.03912"
   inkscape:cy="342.07681"
   inkscape:window-x="-8"
   inkscape:window-y="-8"
   inkscape:window-maximized="1"
   inkscape:current-layer="Capa_1"
   inkscape:pagecheckerboard="true"
   showguides="false" />

<circle
   style="opacity:1;vector-effect:none;fill:#ffffff;fill-opacity:1;fill-rule:evenodd;stroke:none;stroke-width:47.35730362;stroke-linecap:butt;stroke-linejoin:round;stroke-miterlimit:4;stroke-dasharray:none;stroke-dashoffset:0;stroke-opacity:0.96984923"
   id="path831"
   cx="341.45502"
   cy="341.87402"
   r="341.45499" /><g
   id="g6"
   transform="translate(243.25384,171.16955)">
</g>
<g
   id="g8"
   transform="translate(243.25384,171.16955)">
</g>
<g
   id="g10"
   transform="translate(243.25384,171.16955)">
</g>
<g
   id="g12"
   transform="translate(243.25384,171.16955)">
</g>
<g
   id="g14"
   transform="translate(243.25384,171.16955)">
</g>
<g
   id="g16"
   transform="translate(243.25384,171.16955)">
</g>
<g
   id="g18"
   transform="translate(243.25384,171.16955)">
</g>
<g
   id="g20"
   transform="translate(243.25384,171.16955)">
</g>
<g
   id="g22"
   transform="translate(243.25384,171.16955)">
</g>
<g
   id="g24"
   transform="translate(243.25384,171.16955)">
</g>
<g
   id="g26"
   transform="translate(243.25384,171.16955)">
</g>
<g
   id="g28"
   transform="translate(243.25384,171.16955)">
</g>
<g
   id="g30"
   transform="translate(243.25384,171.16955)">
</g>
<g
   id="g32"
   transform="translate(243.25384,171.16955)">
</g>
<g
   id="g34"
   transform="translate(243.25384,171.16955)">
</g>
<path
   inkscape:connector-curvature="0"
   id="path2"
   d="M 637.63795,170.39945 C 607.07861,117.97893 565.62681,76.477534 513.27165,45.885896 460.9087,15.292698 403.74396,-2.6999999e-8 341.73692,-2.6999999e-8 279.73768,-2.6999999e-8 222.55424,15.297379 170.2022,45.885896 117.84236,76.475974 76.392122,117.97893 45.83278,170.39945 15.278113,222.81841 0,280.06031 0,342.12361 c 0,74.5521 21.725685,141.59126 65.187965,201.13463 43.457605,59.54806 99.598395,100.753 168.417695,123.61949 8.01077,1.48855 13.94091,0.44157 17.79667,-3.1144 3.85733,-3.56065 5.78365,-8.02004 5.78365,-13.35946 0,-0.89094 -0.0764,-8.90631 -0.22443,-24.05545 -0.15273,-15.14915 -0.22442,-28.36507 -0.22442,-39.6415 l -10.23476,1.77252 c -6.5255,1.19677 -14.75757,1.70387 -24.69622,1.56032 -9.93396,-0.13886 -20.24665,-1.18116 -30.92403,-3.11908 -10.68206,-1.92075 -20.61758,-6.37546 -29.81437,-13.35478 -9.19212,-6.97931 -15.71762,-16.11498 -19.57494,-27.39298 l -4.44956,-10.2513 c -2.96585,-6.82484 -7.63516,-14.40644 -14.01415,-22.7167 -6.379,-8.31807 -12.82969,-13.95707 -19.35519,-16.92636 l -3.11547,-2.23281 c -2.07594,-1.48387 -4.002264,-3.27356 -5.783645,-5.35034 -1.779823,-2.07679 -3.112353,-4.15514 -4.002264,-6.2366 -0.89147,-2.08303 -0.152734,-3.79158 2.223999,-5.1319 2.376734,-1.34031 6.671999,-1.99096 12.9045,-1.99096 l 8.89599,1.33095 c 5.93327,1.19052 13.27231,4.74649 22.02648,10.68975 8.7495,5.93858 15.94204,13.65905 21.57919,23.15827 6.82629,12.17986 15.05057,21.46065 24.69621,27.84704 9.63785,6.38639 19.35519,9.57412 29.14265,9.57412 9.78747,0 18.24085,-0.74271 25.36326,-2.22033 7.11462,-1.48543 13.78973,-3.71824 20.02223,-6.68597 2.66973,-19.90657 9.93864,-35.19927 21.80049,-45.88902 -16.90676,-1.77877 -32.10694,-4.45784 -45.60835,-8.02005 -13.49361,-3.56689 -27.43764,-9.35568 -41.82272,-17.38196 -14.39288,-8.01537 -26.33266,-17.96865 -35.82245,-29.84269 -9.49135,-11.88028 -17.2808,-27.47724 -23.35745,-46.77684 -6.07976,-19.3074 -9.12042,-41.57941 -9.12042,-66.82227 0,-35.94198 11.72002,-66.52737 35.1554,-91.77335 -10.97817,-27.02163 -9.94176,-57.31368 3.11235,-90.87305 8.603,-2.67595 21.36099,-0.66782 38.26775,6.01191 16.90988,6.68285 29.29072,12.40767 37.15498,17.15416 7.86426,4.74494 14.16533,8.76588 18.91257,12.02695 27.59349,-7.7189 56.0691,-11.57914 85.43462,-11.57914 29.36552,0 57.84736,3.86024 85.44241,11.57914 l 16.90832,-10.68663 c 11.56261,-7.13067 25.21675,-13.66529 40.92969,-19.60543 15.72229,-5.93701 27.74467,-7.57223 36.05467,-4.89628 13.34399,33.56093 14.53314,63.85142 3.55185,90.87305 23.43382,25.24598 35.15852,55.83918 35.15852,91.77335 0,25.24286 -3.05157,47.58509 -9.12199,67.04072 -6.0782,19.45875 -13.93467,35.04011 -23.57252,46.77684 -9.64876,11.73517 -21.6649,21.61043 -36.04999,29.62424 -14.3882,8.02004 -28.3369,13.80883 -41.83051,17.37572 -13.49985,3.5669 -28.70004,6.24753 -45.6068,8.02941 15.41994,13.35946 23.13147,34.44719 23.13147,63.25382 v 93.98901 c 0,5.33942 1.85463,9.79725 5.56701,13.35946 3.7077,3.55597 9.56304,4.60295 17.5738,3.11284 68.82866,-22.86337 124.96945,-64.06987 168.42549,-123.61793 43.45137,-59.54338 65.18485,-126.58253 65.18485,-201.13463 -0.0156,-62.0555 -15.30149,-119.29272 -45.84213,-171.71168 z"
   style="stroke-width:1.55941689" /></svg>