<?xml version="1.0" encoding="UTF-8" standalone="no"?>
<!-- Created with Inkscape (http://www.inkscape.org/) -->

<svg
   xmlns:dc="http://purl.org/dc/elements/1.1/"
   xmlns:cc="http://creativecommons.org/ns#"
   xmlns:rdf="http://www.w3.org/1999/02/22-rdf-syntax-ns#"
   xmlns:svg="http://www.w3.org/2000/svg"
   xmlns="http://www.w3.org/2000/svg"
   xmlns:sodipodi="http://sodipodi.sourceforge.net/DTD/sodipodi-0.dtd"
   xmlns:inkscape="http://www.inkscape.org/namespaces/inkscape"
   width="100mm"
   height="112.03241mm"
   viewBox="0 0 100 112.03241"
   version="1.1"
   id="svg8"
   inkscape:version="0.92.4 (5da689c313, 2019-01-14)"
   sodipodi:docname="github.svg">
  <defs
     id="defs2" />
  <sodipodi:namedview
     id="base"
     pagecolor="#ffffff"
     bordercolor="#666666"
     borderopacity="1.0"
     inkscape:pageopacity="0.0"
     inkscape:pageshadow="2"
     inkscape:zoom="0.7"
     inkscape:cx="-333.43184"
     inkscape:cy="388.26392"
     inkscape:document-units="mm"
     inkscape:current-layer="layer2"
     showgrid="false"
     inkscape:window-width="1920"
     inkscape:window-height="1017"
     inkscape:window-x="-8"
     inkscape:window-y="-8"
     inkscape:window-maximized="1" />
  <metadata
     id="metadata5">
    <rdf:RDF>
      <cc:Work
         rdf:about="">
        <dc:format>image/svg+xml</dc:format>
        <dc:type
           rdf:resource="http://purl.org/dc/dcmitype/StillImage" />
        <dc:title />
      </cc:Work>
    </rdf:RDF>
  </metadata>
  <g
     inkscape:groupmode="layer"
     id="layer2"
     inkscape:label="Layer 2"
     style="display:inline"
     transform="translate(-26.055659,-137.16037)">
    <path
       style="fill:#f27777;fill-opacity:1;stroke:none;stroke-width:0.19884983px;stroke-linecap:butt;stroke-linejoin:miter;stroke-opacity:1"
       d="m 58.019265,249.09236 1.823919,-0.4373 1.56239,-1.63341 0.07102,-15.02027 c -1.210632,0.0459 -20.849736,4.86774 -25.187314,-10.11631 -1.098916,-3.79618 -5.591291,-8.69148 -7.242893,-9.05212 -2.781427,-1.7102 -2.972566,-2.95069 -2.989777,-3.28292 -0.06837,-1.31966 3.569216,-1.74225 4.015841,-1.29563 4.758702,0.95118 8.805452,3.59445 13.550708,11.41118 4.40126,5.50149 14.109207,4.46686 18.137509,2.00272 0,0 -0.02533,-5.46817 4.494218,-9.53577 0,0 -37.208499,0.70042 -32.818557,-41.07096 0.572828,-5.45061 4.973653,-12.31002 7.267561,-14.05498 0,0 -4.119031,-8.66417 0.639161,-19.60091 0,0 4.971246,-2.34359 19.956001,7.45687 0,0 17.328339,-5.53939 36.290094,0.071 0,0 12.996254,-8.80621 19.955994,-7.59891 0,0 4.65776,10.32699 0.89382,19.34625 10.35616,9.06147 12.1056,39.25804 -7.21727,50.22619 -4.48179,2.82059 -10.91919,4.40575 -18.351705,5.22543 0,0 2.20303,1.22956 3.861892,5.92382 1.288769,3.41944 1.182446,14.0776 0.858523,28.52516 0,0 0.502169,2.30999 4.21824,2.61129 z"
       id="path4530"
       inkscape:connector-curvature="0"
       sodipodi:nodetypes="ccccscsccccscccccccccccc" />
  </g>
</svg>
